<mxfile host="Electron" agent="Mozilla/5.0 (X11; Linux x86_64) AppleWebKit/537.36 (KHTML, like Gecko) draw.io/28.1.2 Chrome/138.0.7204.243 Electron/37.4.0 Safari/537.36" version="28.1.2">
  <diagram name="Page-1" id="-LYkwcbeaNfRO7ihDFju">
    <mxGraphModel dx="958" dy="573" grid="1" gridSize="10" guides="1" tooltips="1" connect="1" arrows="1" fold="1" page="1" pageScale="1" pageWidth="850" pageHeight="1100" math="1" shadow="0">
      <root>
        <mxCell id="0" />
        <mxCell id="1" parent="0" />
        <mxCell id="Pn65bih_jK5gMUdZLVNo-1" value="" style="endArrow=none;html=1;rounded=0;strokeWidth=3;exitX=0.819;exitY=0.998;exitDx=0;exitDy=0;exitPerimeter=0;" edge="1" parent="1">
          <mxGeometry width="50" height="50" relative="1" as="geometry">
            <mxPoint x="119.13999999999999" y="319.94000000000005" as="sourcePoint" />
            <mxPoint x="350" y="320" as="targetPoint" />
          </mxGeometry>
        </mxCell>
        <mxCell id="Pn65bih_jK5gMUdZLVNo-7" value="" style="endArrow=none;html=1;rounded=0;strokeColor=#CCCCCC;strokeWidth=5;" edge="1" parent="1">
          <mxGeometry width="50" height="50" relative="1" as="geometry">
            <mxPoint x="110" y="260" as="sourcePoint" />
            <mxPoint x="650" y="260" as="targetPoint" />
          </mxGeometry>
        </mxCell>
        <mxCell id="Pn65bih_jK5gMUdZLVNo-5" value="" style="endArrow=oval;html=1;rounded=0;strokeColor=#0000FF;strokeWidth=5;endFill=1;" edge="1" parent="1">
          <mxGeometry width="50" height="50" relative="1" as="geometry">
            <mxPoint x="280" y="440" as="sourcePoint" />
            <mxPoint x="600" y="240" as="targetPoint" />
          </mxGeometry>
        </mxCell>
        <mxCell id="Pn65bih_jK5gMUdZLVNo-4" value="" style="endArrow=oval;html=1;rounded=0;endFill=1;strokeWidth=5;fillColor=#e51400;strokeColor=#FF0000;exitX=1;exitY=0;exitDx=0;exitDy=0;" edge="1" parent="1" source="Pn65bih_jK5gMUdZLVNo-6">
          <mxGeometry width="50" height="50" relative="1" as="geometry">
            <mxPoint x="240" y="320" as="sourcePoint" />
            <mxPoint x="280" y="440" as="targetPoint" />
          </mxGeometry>
        </mxCell>
        <mxCell id="Pn65bih_jK5gMUdZLVNo-2" value="" style="rounded=0;whiteSpace=wrap;html=1;fillColor=#FF00FF;strokeColor=none;opacity=30;" vertex="1" parent="1">
          <mxGeometry x="190" y="240" width="40" height="80" as="geometry" />
        </mxCell>
        <mxCell id="Pn65bih_jK5gMUdZLVNo-6" value="" style="rounded=0;whiteSpace=wrap;html=1;fillColor=#FF00FF;strokeColor=none;opacity=30;" vertex="1" parent="1">
          <mxGeometry x="190" y="320" width="40" height="80" as="geometry" />
        </mxCell>
        <mxCell id="Pn65bih_jK5gMUdZLVNo-8" value="" style="endArrow=baseDash;html=1;rounded=0;startArrow=baseDash;startFill=0;endFill=0;strokeColor=#FF00FF;strokeWidth=2;opacity=40;dashed=1;" edge="1" parent="1">
          <mxGeometry width="50" height="50" relative="1" as="geometry">
            <mxPoint x="170" y="320" as="sourcePoint" />
            <mxPoint x="170" y="240" as="targetPoint" />
          </mxGeometry>
        </mxCell>
        <mxCell id="Pn65bih_jK5gMUdZLVNo-9" value="" style="endArrow=baseDash;html=1;rounded=0;startArrow=baseDash;startFill=0;endFill=0;strokeColor=#FF0000;strokeWidth=2;opacity=60;dashed=1;" edge="1" parent="1">
          <mxGeometry width="50" height="50" relative="1" as="geometry">
            <mxPoint x="320" y="440" as="sourcePoint" />
            <mxPoint x="320" y="320" as="targetPoint" />
          </mxGeometry>
        </mxCell>
        <mxCell id="Pn65bih_jK5gMUdZLVNo-10" value="" style="endArrow=baseDash;html=1;rounded=0;startArrow=baseDash;startFill=0;endFill=0;strokeColor=#0000FF;strokeWidth=2;opacity=40;dashed=1;" edge="1" parent="1">
          <mxGeometry width="50" height="50" relative="1" as="geometry">
            <mxPoint x="600" y="440" as="sourcePoint" />
            <mxPoint x="600" y="240" as="targetPoint" />
          </mxGeometry>
        </mxCell>
        <mxCell id="Pn65bih_jK5gMUdZLVNo-11" value="&lt;font style=&quot;color: rgb(255, 0, 255); font-size: 14px;&quot;&gt;&lt;b style=&quot;&quot;&gt;$$\varepsilon_t(n)$$&lt;/b&gt;&lt;/font&gt;" style="text;html=1;align=center;verticalAlign=middle;whiteSpace=wrap;rounded=0;" vertex="1" parent="1">
          <mxGeometry x="120" y="270" width="60" height="30" as="geometry" />
        </mxCell>
        <mxCell id="Pn65bih_jK5gMUdZLVNo-13" value="&lt;font style=&quot;font-size: 14px; color: rgb(255, 0, 0);&quot;&gt;&lt;b style=&quot;&quot;&gt;$$s(n-1)$$&lt;/b&gt;&lt;/font&gt;" style="text;html=1;align=center;verticalAlign=middle;whiteSpace=wrap;rounded=0;" vertex="1" parent="1">
          <mxGeometry x="260" y="345" width="60" height="30" as="geometry" />
        </mxCell>
        <mxCell id="Pn65bih_jK5gMUdZLVNo-17" value="&lt;font style=&quot;color: rgb(0, 0, 255); font-size: 14px;&quot;&gt;$$\sum_{i=1}^{n-2} s(i)$$&lt;/font&gt;" style="text;html=1;align=center;verticalAlign=middle;whiteSpace=wrap;rounded=0;" vertex="1" parent="1">
          <mxGeometry x="610" y="340" width="60" height="30" as="geometry" />
        </mxCell>
        <mxCell id="Pn65bih_jK5gMUdZLVNo-18" value="&lt;font style=&quot;font-size: 14px; color: rgb(0, 0, 0);&quot;&gt;&lt;b style=&quot;&quot;&gt;$$del(n)$$&lt;/b&gt;&lt;/font&gt;" style="text;html=1;align=center;verticalAlign=middle;whiteSpace=wrap;rounded=0;" vertex="1" parent="1">
          <mxGeometry x="100" y="320" width="60" height="30" as="geometry" />
        </mxCell>
        <mxCell id="Pn65bih_jK5gMUdZLVNo-19" value="&lt;font style=&quot;font-size: 14px; color: rgb(153, 153, 153);&quot;&gt;&lt;b style=&quot;&quot;&gt;$$V_i$$&lt;/b&gt;&lt;/font&gt;" style="text;html=1;align=center;verticalAlign=middle;whiteSpace=wrap;rounded=0;" vertex="1" parent="1">
          <mxGeometry x="80" y="230" width="60" height="30" as="geometry" />
        </mxCell>
      </root>
    </mxGraphModel>
  </diagram>
</mxfile>
